<?xml version="1.0" encoding="UTF-8"?>
<svg width="24" height="24" viewBox="0 0 24 24" xmlns="http://www.w3.org/2000/svg">
  <defs>
    <linearGradient id="accentGrad" x1="0%" y1="0%" x2="100%" y2="100%">
      <stop offset="0%" stop-color="#3b82f6"/>
      <stop offset="100%" stop-color="#8b5cf6"/>
    </linearGradient>
  </defs>
  <path d="M9.5 2C7.01 2 5 4.01 5 6.5c0 1.54.8 2.9 2 3.68V10c0 1.1.9 2 2 2h1v1c0 1.1.9 2 2 2h1v1c0 1.1.9 2 2 2h1c1.1 0 2-.9 2-2v-1h1c1.1 0 2-.9 2-2v-1h1c1.1 0 2-.9 2-2V9.68c1.2-.78 2-2.14 2-3.68C23 4.01 20.99 2 18.5 2c-1.54 0-2.9.8-3.68 2H13.18C12.4 2.8 11.04 2 9.5 2zM9.5 4c.83 0 1.5.67 1.5 1.5S10.33 7 9.5 7 8 6.33 8 5.5 8.67 4 9.5 4zm9 0c.83 0 1.5.67 1.5 1.5S19.33 7 18.5 7 17 6.33 17 5.5 17.67 4 18.5 4z" fill="url(#accentGrad)"/>
</svg>
